<svg width="22" height="22" viewBox="0 0 22 22" fill="none" xmlns="http://www.w3.org/2000/svg">
<path d="M22 3.85C22 5.973 20.273 7.7 18.15 7.7C16.027 7.7 14.3 5.973 14.3 3.85C14.3 1.727 16.027 0 18.15 0C20.273 0 22 1.727 22 3.85ZM18.15 9.9C16.5463 9.89709 15.0092 9.25875 13.8752 8.12478C12.7413 6.99082 12.1029 5.45367 12.1 3.85C12.1 3.3 12.188 2.75 12.331 2.2H2.2C0.979 2.2 0 3.179 0 4.4V19.8C0 20.3835 0.231785 20.9431 0.644365 21.3556C1.05694 21.7682 1.61652 22 2.2 22H17.6C18.821 22 19.8 21.021 19.8 19.8V9.669C19.25 9.812 18.7 9.9 18.15 9.9Z" fill="#F9D5A2"/>
</svg>
