<svg width="383" height="82" viewBox="0 0 383 82" fill="none" xmlns="http://www.w3.org/2000/svg">
<path fill-rule="evenodd" clip-rule="evenodd" d="M40 2H381V42C381 62.9868 363.987 80 343 80H2V40C2 19.0132 19.0132 2 40 2ZM0 40C0 17.9086 17.9086 0 40 0H381H383V2V42C383 64.0914 365.091 82 343 82H2H0V80V40ZM67.2539 30.0156H69.4805V44.0781H67.2539V30.0156ZM53.2852 42.9297L52.418 41.1484C57.457 39.6953 60.4688 36.9414 60.8906 33.4141H53.5195V31.6094H63.2461C63.2344 37.1055 59.5547 41.0781 53.2852 42.9297ZM55.3242 50.9219L54.457 49.1641C58.3945 48.5312 61.4062 46.2578 61.418 43.4219V42.6016H63.7383V43.4219C63.7148 46.2344 66.668 48.5078 70.6523 49.1641L69.7852 50.9219C66.5039 50.3359 63.7969 48.7305 62.5664 46.3984C61.3008 48.7305 58.5703 50.3359 55.3242 50.9219ZM80.168 33.2734H85.3008V35.1016H72.8555V33.2734H77.9414V30.2734H80.168V33.2734ZM79.0898 46.4219C76.1953 46.4102 74.0742 44.3477 74.0742 41.5234C74.0742 38.6875 76.1953 36.6484 79.0898 36.6484C81.9375 36.6484 84.0352 38.6875 84.0352 41.5234C84.0352 44.3477 81.9375 46.4102 79.0898 46.4219ZM79.0898 38.5234C77.4023 38.5469 76.1484 39.7656 76.1602 41.5234C76.1484 43.3164 77.4023 44.5234 79.0898 44.5C80.7422 44.5234 82.0078 43.3164 81.9961 41.5234C82.0078 39.7656 80.7422 38.5469 79.0898 38.5234ZM88.1367 40.4688H84.8555V38.6406H88.1367V29.9922H90.3398V50.9922H88.1367V40.4688ZM93.5742 46.4453H112.793V48.2734H93.5742V46.4453ZM110.52 42.4609H95.7773V31.4453H98.0039V35.2188H108.316V31.4453H110.52V42.4609ZM98.0039 36.9766V40.7031H108.316V36.9766H98.0039ZM130.254 29.9922H132.387V50.9922H130.254V29.9922ZM119.074 46.4688C116.332 46.4805 114.551 43.6211 114.551 39.0625C114.551 34.5156 116.332 31.668 119.074 31.6797C121.629 31.668 123.352 34.0938 123.609 38.0312H125.988V30.3906H128.121V49.9609H125.988V39.8359H123.621C123.422 43.9375 121.676 46.4805 119.074 46.4688ZM119.074 33.7656C117.562 33.7539 116.613 35.7109 116.613 39.0625C116.613 42.4023 117.562 44.3711 119.074 44.3594C120.621 44.3711 121.582 42.4023 121.582 39.0625C121.582 35.7109 120.621 33.7539 119.074 33.7656ZM142.629 31.75V35.3359C142.629 39.1797 144.785 43.0117 147.996 44.4531L146.637 46.2344C144.258 45.0391 142.453 42.6719 141.527 39.8008C140.602 42.8242 138.773 45.3789 136.348 46.6328L134.941 44.8281C138.199 43.2695 140.367 39.2266 140.379 35.3359V31.75H142.629ZM150.363 38.7812H145.676V36.9766H150.363V29.9922H152.566V51.0391H150.363V38.7812ZM161.66 46.4922H180.879V48.3672H161.66V46.4922ZM166.488 33.8359H163.301V32.0078H179.121V33.8359H175.91V40.8438H179.051V42.625H163.348V40.8438H166.488V33.8359ZM168.691 33.8359V40.8438H173.73V33.8359H168.691ZM193.066 46.6094H201.621V48.4844H182.402V46.6094H190.863V42.9297H184.746V36.25H197.074V33.2969H184.699V31.4688H199.277V38.0312H186.949V41.1016H199.77V42.9297H193.066V46.6094ZM214.816 30.4375H216.926V42.6484H214.816V37.1406H211.887V35.3359H214.816V30.4375ZM204.293 42.4141L203.098 40.6562C205.887 39.543 207.352 36.9297 207.34 34.4922V33.4609H203.613V31.6562H213.012V33.4609H209.496V34.4922C209.496 36.7539 210.891 39.1445 213.551 40.2344L212.426 41.9453C210.516 41.1602 209.191 39.7188 208.465 37.9961C207.715 39.9297 206.32 41.5586 204.293 42.4141ZM218.848 45.4844H206.777V43.6797H221.051V50.9922H218.848V45.4844ZM221.051 42.8125H218.941V29.9922H221.051V42.8125ZM228.551 41.1719H240.926V42.9531H226.301V31.7266H240.715V33.5312H228.551V36.3672H240.27V38.125H228.551V41.1719ZM243.105 48.3438H223.887V46.5156H243.105V48.3438ZM264.621 29.9922H266.848V38.3594H270.105V40.2109H266.848V50.9688H264.621V29.9922ZM261.363 32.1953C261.34 38.2656 258.668 43.6914 251.754 47.1016L250.512 45.3672C255.773 42.7422 258.633 38.9453 259.09 34.0469H251.566V32.1953H261.363ZM286.535 29.9922H288.762V50.9922H286.535V42.1562H282.504V40.3047H286.535V37.7031H282.504V35.8516H286.535V29.9922ZM272.52 46.9844L271.043 45.2969C274.219 43.7266 276.469 39.6836 276.48 35.8984V33.9297H271.84V32.1016H283.348V33.9297H278.73V35.8984C278.73 39.1914 280.98 43.1875 284.121 44.7578L282.785 46.4688C280.488 45.2734 278.613 42.7773 277.664 39.9531C276.75 43.0469 274.863 45.6953 272.52 46.9844ZM293.801 36.8359C293.789 33.4844 297.07 31.2695 301.535 31.2578C306.023 31.2695 309.293 33.4844 309.293 36.8359C309.293 39.9766 306.551 42.0742 302.637 42.3906V46.5156H311.191V48.3672H291.973V46.5156H300.434V42.3906C296.543 42.0742 293.789 39.9766 293.801 36.8359ZM301.535 33.0859C298.301 33.0625 295.957 34.5625 295.957 36.8359C295.957 39.1914 298.301 40.6562 301.535 40.6797C304.793 40.6562 307.125 39.1914 307.137 36.8359C307.125 34.5625 304.793 33.0625 301.535 33.0859ZM327.926 29.9922H330.176V50.9922H327.926V29.9922ZM314.098 47.1719L312.926 45.3672C318.504 42.707 321.234 38.9219 321.668 34.0234H313.934V32.2422H323.918C323.918 38.3945 321.305 43.7148 314.098 47.1719Z" fill="url(#paint0_linear_174_943)"/>
<defs>
<linearGradient id="paint0_linear_174_943" x1="-3.41071" y1="-3.00001" x2="375.444" y2="104.998" gradientUnits="userSpaceOnUse">
<stop stop-color="#9734DD"/>
<stop offset="1" stop-color="#F9D5A2"/>
</linearGradient>
</defs>
</svg>
