<svg width="58" height="60" viewBox="0 0 58 60" fill="none" xmlns="http://www.w3.org/2000/svg">
<path d="M52.8646 0H5.13542C3.77342 0 2.46721 0.537272 1.50413 1.49362C0.541051 2.44998 0 3.74707 0 5.09955V19.8613C0.00127361 20.8412 0.286865 21.8001 0.822599 22.6231C1.35833 23.4461 2.12152 24.0983 3.02083 24.5019L21.9312 33.0361C19.1312 34.592 16.93 37.0263 15.6724 39.9575C14.4147 42.8887 14.1717 46.1514 14.9813 49.2345C15.7909 52.3176 17.6075 55.047 20.1465 56.9951C22.6855 58.9432 25.8035 60 29.0121 60C32.2207 60 35.3387 58.9432 37.8777 56.9951C40.4167 55.047 42.2332 52.3176 43.0429 49.2345C43.8525 46.1514 43.6095 42.8887 42.3518 39.9575C41.0942 37.0263 38.8929 34.592 36.0929 33.0361L54.9792 24.5019C55.8785 24.0983 56.6417 23.4461 57.1774 22.6231C57.7131 21.8001 57.9987 20.8412 58 19.8613V5.09955C58 3.74707 57.459 2.44998 56.4959 1.49362C55.5328 0.537272 54.2266 0 52.8646 0ZM19.3333 4.79958H38.6667V26.5987L29 30.9603L19.3333 26.5987V4.79958ZM29 55.1952C27.0881 55.1952 25.2192 54.6322 23.6295 53.5774C22.0398 52.5226 20.8008 51.0235 20.0692 49.2694C19.3375 47.5154 19.1461 45.5854 19.5191 43.7233C19.8921 41.8612 20.8127 40.1508 22.1646 38.8084C23.5165 37.4659 25.239 36.5517 27.1141 36.1813C28.9893 35.8109 30.9329 36.001 32.6993 36.7275C34.4656 37.4541 35.9754 38.6844 37.0375 40.263C38.0997 41.8416 38.6667 43.6975 38.6667 45.596C38.6667 48.1419 37.6482 50.5834 35.8354 52.3836C34.0225 54.1838 31.5638 55.1952 29 55.1952Z" fill="#B2B2B2"/>
</svg>
