<svg width="12" height="10" viewBox="0 0 12 10" fill="none" xmlns="http://www.w3.org/2000/svg">
<path d="M1.03609 0.745396L3.40961 2.83385L5.52426 0.230144C5.58348 0.157354 5.65835 0.0988607 5.7433 0.0590199C5.82826 0.0191791 5.92111 -0.000982411 6.01494 3.68044e-05C6.10876 0.00105602 6.20115 0.0232297 6.28522 0.0649065C6.36929 0.106583 6.44288 0.166689 6.5005 0.240749L8.51846 2.83323L10.9687 0.71483C11.0649 0.631809 11.1842 0.58016 11.3106 0.566793C11.437 0.553427 11.5644 0.578981 11.6759 0.640036C11.7874 0.701092 11.8775 0.794735 11.9343 0.908433C11.9911 1.02213 12.0118 1.15046 11.9936 1.27624L11.0579 7.73061H0.956864L0.00682992 1.30556C-0.0120415 1.17908 0.00841729 1.04985 0.0654353 0.935383C0.122453 0.820915 0.213275 0.726738 0.3256 0.665606C0.437925 0.604474 0.566324 0.579342 0.693408 0.593614C0.820492 0.607886 0.940118 0.660872 1.03609 0.745396ZM1.00552 8.3544H10.9862V8.97819C10.9862 9.14363 10.9205 9.3023 10.8035 9.41928C10.6865 9.53626 10.5278 9.60198 10.3624 9.60198H1.62931C1.46387 9.60198 1.30521 9.53626 1.18822 9.41928C1.07124 9.3023 1.00552 9.14363 1.00552 8.97819V8.3544Z" fill="#F9D5A2"/>
</svg>
