<svg width="78" height="24" viewBox="0 0 78 24" fill="none" xmlns="http://www.w3.org/2000/svg">
<path d="M42.6602 16.9883H35.5508V13.1797H33.7148V16.9883H26.6445V18.5117H42.6602V16.9883ZM27.4258 12.3398L28.1289 13.7852C31.0586 13.3262 33.4902 11.9395 34.623 9.89844C35.7656 11.9395 38.207 13.3262 41.1367 13.7852L41.8398 12.3398C38.2461 11.8125 35.6582 9.78125 35.5703 7.32031H41.1758V5.81641H35.5508V3.47266H33.7148V5.81641H28.0898V7.32031H33.6953C33.6074 9.78125 31.0195 11.8125 27.4258 12.3398ZM58.4805 3.16016H56.6055V20.6602H58.4805V3.16016ZM44.1055 15.9727L45.082 17.4766C51.0879 14.5957 53.2656 10.1621 53.2656 5.03516H44.9453V6.51953H51.3906C51.0293 10.6016 48.7539 13.7559 44.1055 15.9727ZM74.9258 3.16016H73.0703V20.6602H74.9258V12.0469H77.5625V10.4844H74.9258V3.16016ZM61 15.8945L61.293 17.4375C64.3105 17.4473 68.4023 17.4082 72.1914 16.7344L72.0742 15.3672C70.6191 15.5723 69.0566 15.6992 67.5039 15.7773V14.0684C69.4863 13.7852 70.7949 12.584 70.8047 10.8945C70.7949 8.92188 69.0664 7.62305 66.5859 7.61328C64.0957 7.62305 62.3867 8.92188 62.4062 10.8945C62.3867 12.584 63.6758 13.7754 65.6484 14.0684V15.8457C63.9785 15.8945 62.377 15.8945 61 15.8945ZM61.332 6.71484H71.8203V5.23047H67.5039V3.19922H65.6484V5.23047H61.332V6.71484ZM64.1445 10.8945C64.1445 9.77148 65.1211 9.05859 66.5859 9.05859C68.0508 9.05859 69.0176 9.77148 69.0273 10.8945C69.0176 12.0078 68.0508 12.7012 66.5859 12.6914C65.1211 12.7012 64.1445 12.0078 64.1445 10.8945Z" fill="black"/>
<path fill-rule="evenodd" clip-rule="evenodd" d="M4.46818 3.2299C4.54106 3.30259 4.59888 3.38895 4.63833 3.48402C4.67778 3.57909 4.69808 3.68101 4.69808 3.78395C4.69808 3.88688 4.67778 3.9888 4.63833 4.08387C4.59888 4.17894 4.54106 4.2653 4.46818 4.33799L2.67302 6.13159H10.9571C12.825 6.13159 14.6164 6.87361 15.9372 8.19442C17.258 9.51522 18 11.3066 18 13.1745C18 15.0424 17.258 16.8338 15.9372 18.1546C14.6164 19.4754 12.825 20.2175 10.9571 20.2175H4.69669C4.48914 20.2175 4.2901 20.135 4.14334 19.9883C3.99659 19.8415 3.91414 19.6425 3.91414 19.4349C3.91414 19.2274 3.99659 19.0283 4.14334 18.8816C4.2901 18.7348 4.48914 18.6524 4.69669 18.6524H10.9571C12.4099 18.6524 13.8032 18.0752 14.8305 17.0479C15.8578 16.0206 16.4349 14.6273 16.4349 13.1745C16.4349 11.7217 15.8578 10.3284 14.8305 9.30111C13.8032 8.27381 12.4099 7.69669 10.9571 7.69669H2.67302L4.46818 9.49029C4.54094 9.56304 4.59866 9.64942 4.63803 9.74448C4.67741 9.83955 4.69768 9.94143 4.69768 10.0443C4.69768 10.1472 4.67741 10.2491 4.63803 10.3442C4.59866 10.4392 4.54094 10.5256 4.46818 10.5984C4.39542 10.6711 4.30905 10.7288 4.21399 10.7682C4.11892 10.8076 4.01703 10.8279 3.91414 10.8279C3.81124 10.8279 3.70935 10.8076 3.61429 10.7682C3.51923 10.7288 3.43285 10.6711 3.36009 10.5984L0.229903 7.46818C0.157027 7.39549 0.0992079 7.30914 0.0597574 7.21406C0.0203069 7.11899 0 7.01707 0 6.91414C0 6.81121 0.0203069 6.70929 0.0597574 6.61421C0.0992079 6.51914 0.157027 6.43279 0.229903 6.36009L3.36009 3.2299C3.43279 3.15703 3.51914 3.09921 3.61421 3.05976C3.70929 3.02031 3.81121 3 3.91414 3C4.01707 3 4.11899 3.02031 4.21406 3.05976C4.30914 3.09921 4.39549 3.15703 4.46818 3.2299Z" fill="black"/>
</svg>
