<svg width="30" height="24" viewBox="0 0 30 24" fill="none" xmlns="http://www.w3.org/2000/svg">
<path d="M16.8771 23.7298C16.6978 23.5565 16.5971 23.3217 16.5971 23.0768C16.5971 22.832 16.6978 22.5971 16.8771 22.4239L26.7311 12.9129L0.957474 12.9129C0.703535 12.9129 0.459997 12.8155 0.280437 12.6422C0.100876 12.469 0 12.2339 0 11.9889C0 11.7438 0.100876 11.5088 0.280437 11.3355C0.459997 11.1622 0.703535 11.0649 0.957474 11.0649L26.7311 11.0649L16.8771 1.5539C16.7079 1.37874 16.6159 1.14707 16.6202 0.907694C16.6246 0.668317 16.7251 0.439923 16.9005 0.270632C17.076 0.10134 17.3126 0.00436749 17.5607 0.000143955C17.8087 -0.00407958 18.0488 0.0847754 18.2303 0.24799L29.72 11.3359C29.8993 11.5092 30 11.744 30 11.9889C30 12.2337 29.8993 12.4686 29.72 12.6418L18.2303 23.7298C18.0508 23.9028 17.8074 24 17.5537 24C17.3 24 17.0566 23.9028 16.8771 23.7298Z" fill="#EAEAEA"/>
</svg>
