<svg width="40" height="40" viewBox="0 0 40 40" fill="none" xmlns="http://www.w3.org/2000/svg">
<rect width="40" height="40" rx="20" fill="#EAEAEA"/>
<path d="M18.8424 25.684C20.3605 25.6837 21.8349 25.1755 23.0307 24.2403L26.7906 28L28 26.7907L24.2401 23.031C25.1758 21.8351 25.6844 20.3604 25.6847 18.842C25.6847 15.0695 22.6151 12 18.8424 12C15.0697 12 12 15.0695 12 18.842C12 22.6145 15.0697 25.684 18.8424 25.684ZM18.8424 13.7105C21.6725 13.7105 23.9741 16.012 23.9741 18.842C23.9741 21.672 21.6725 23.9735 18.8424 23.9735C16.0122 23.9735 13.7106 21.672 13.7106 18.842C13.7106 16.012 16.0122 13.7105 18.8424 13.7105Z" fill="#222222"/>
</svg>
